<svg width="11" height="15" viewBox="0 0 11 15" fill="none" xmlns="http://www.w3.org/2000/svg">
<path d="M10.5955 7.85527C10.1387 10.1388 8.49462 11.9656 6.48514 13.153C4.56699 14.2491 2.46618 14.4318 0.27401 14.3404C0.182669 14.3404 0.0913403 14.3404 0 14.3404C0 14.2491 0 14.1578 0 14.0664C0.182681 11.1435 1.1874 8.40331 2.83153 5.93712C4.38431 3.65361 6.48515 1.82681 8.58598 0C10.1388 2.28351 11.1435 5.29774 10.5955 7.85527Z" fill="#AEDC90"/>
<path d="M10.5955 7.85527C10.1387 10.1388 8.49462 11.9656 6.48514 13.153C4.56699 14.2491 2.46618 14.4318 0.27401 14.3404C0.182669 14.3404 0.0913403 14.3404 0 14.3404C9.49939 9.04268 8.58598 0 8.58598 0C10.1388 2.28351 11.1435 5.29774 10.5955 7.85527Z" fill="#7CA661"/>
<path d="M8.22086 4.56689C7.76416 6.75905 6.48539 8.95123 5.02395 10.5954C3.74519 12.0568 2.1924 13.4269 0.36559 14.3403C0.27425 14.3403 0.182893 14.3403 0.0915527 14.3403C0.0915527 14.249 0.0915527 14.1576 0.0915527 14.0663C1.82702 13.0615 3.47115 11.9655 4.74991 10.3213C5.48063 9.40793 6.12002 8.49452 6.66806 7.48977C7.21611 6.48503 7.49011 5.4803 7.85548 4.47556C7.94682 4.29288 8.22086 4.38421 8.22086 4.56689Z" fill="#39700B"/>
</svg>
