<svg width="11" height="15" viewBox="0 0 11 15" fill="none" xmlns="http://www.w3.org/2000/svg">
<path d="M0.151131 7.85527C0.607833 10.1388 2.25196 11.9656 4.26144 13.153C6.17959 14.2491 8.28041 14.4318 10.4726 14.3404C10.5639 14.3404 10.6552 14.3404 10.7466 14.3404C10.7466 14.2491 10.7466 14.1578 10.7466 14.0664C10.5639 11.1435 9.55918 8.40331 7.91506 5.93712C6.36227 3.65361 4.26143 1.82681 2.1606 0C0.607816 2.28351 -0.396911 5.29774 0.151131 7.85527Z" fill="#AEDC90"/>
<path d="M0.151131 7.85527C0.607833 10.1388 2.25196 11.9656 4.26144 13.153C6.17959 14.2491 8.28041 14.4318 10.4726 14.3404C10.5639 14.3404 10.6552 14.3404 10.7466 14.3404C1.24719 9.04268 2.1606 0 2.1606 0C0.607816 2.28351 -0.396911 5.29774 0.151131 7.85527Z" fill="#7CA661"/>
<path d="M2.52572 4.56689C2.98242 6.75905 4.26119 8.95123 5.72263 10.5954C7.0014 12.0568 8.55419 13.4269 10.381 14.3403C10.4723 14.3403 10.5637 14.3403 10.655 14.3403C10.655 14.249 10.655 14.1576 10.655 14.0663C8.91956 13.0615 7.27543 11.9655 5.99667 10.3213C5.26595 9.40793 4.62656 8.49452 4.07852 7.48977C3.53048 6.48503 3.25647 5.4803 2.89111 4.47556C2.79977 4.29288 2.52572 4.38421 2.52572 4.56689Z" fill="#39700B"/>
</svg>
