<svg width="48" height="43" viewBox="0 0 48 43" fill="none" xmlns="http://www.w3.org/2000/svg">
<path d="M0.532599 35.2388C0.532599 35.2388 3.61037 36.3827 5.36911 34.2379C7.12785 32.093 9.76596 26.0159 15.7017 24.014C17.2406 23.5135 18.5596 23.0846 19.7321 22.7271C22.297 21.9406 24.3488 20.0103 25.2282 17.5079C26.1809 14.9341 28.2327 11.6453 32.7028 9.64342C40.837 6.06865 40.6904 3.06585 41.6431 0.492011C42.5957 -2.08183 48.9712 5.78267 47.5788 16.1495C46.1865 26.5164 36.0004 33.4514 36.0004 33.4514C36.0004 33.4514 31.6769 38.8851 22.1504 41.5304C12.6972 44.1757 8.37363 38.6706 6.68817 37.8126C5.076 36.9547 2.07148 39.457 0.605862 38.1701C-0.713191 36.9547 0.532599 35.2388 0.532599 35.2388Z" fill="#D4E86D"/>
<path d="M47.5789 16.221C48.9713 5.85416 42.5958 -2.08185 41.6432 0.563486C41.0569 2.20788 40.9104 3.99527 38.7852 5.99715C39.9577 7.92752 41.1302 11.0018 40.9837 15.7205C40.6905 25.1579 31.7503 23.9425 28.8924 27.0883C26.0344 30.2341 26.5473 37.7411 16.801 38.4561C11.0118 38.8851 7.64093 36.0967 5.88219 33.5944C5.66235 33.8804 5.51578 34.0949 5.36922 34.3093C3.61048 36.4542 0.532707 35.3103 0.532707 35.3103C0.532707 35.3103 -0.713078 36.9547 0.679255 38.2416C2.07159 39.5285 5.07611 37.0262 6.76157 37.8841C8.37374 38.7421 12.6973 44.2472 22.2238 41.6019C31.677 38.9566 36.0739 33.5229 36.0739 33.5229C36.0739 33.5229 46.1133 26.5878 47.5789 16.221Z" fill="#B5CD5A"/>
</svg>
