<svg width="312" height="311" viewBox="0 0 312 311" fill="none" xmlns="http://www.w3.org/2000/svg">
<path d="M11.0542 304.922C7.93938 308.037 2.7072 307.855 2.7072 307.855C2.7072 307.855 2.52512 302.623 5.63992 299.508C8.75473 296.393 13.9869 296.575 13.9869 296.575C13.9869 296.575 14.169 301.807 11.0542 304.922Z" fill="#FFF1CE"/>
<circle cx="62.1067" cy="186" r="4" fill="#FFF1CE"/>
<circle cx="220.107" cy="196" r="4" fill="#FFF1CE"/>
<circle cx="307.107" cy="162" r="4" fill="#FFF1CE"/>
<circle cx="234.607" cy="3.5" r="3.5" fill="#FFF1CE"/>
<circle cx="57.6067" cy="104.5" r="3.5" fill="#FFF1CE"/>
<circle cx="159.107" cy="45" r="3" fill="#FFF1CE"/>
<path d="M263.429 183.432C264.342 187.542 267.265 191.104 271.01 193.205C274.572 195.215 278.409 195.58 282.428 195.397C282.61 195.397 282.793 195.397 282.884 195.397C282.884 195.215 282.884 195.032 282.884 194.849C282.519 189.552 280.692 184.345 277.769 179.961C274.846 175.759 270.919 172.288 267.083 169C264.16 173.202 262.333 178.773 263.429 183.432Z" fill="#AEDC90"/>
<path d="M263.429 183.432C264.342 187.542 267.265 191.104 271.01 193.205C274.572 195.215 278.409 195.58 282.428 195.397C282.61 195.397 282.793 195.397 282.884 195.397C265.347 185.624 266.991 169 266.991 169C264.16 173.202 262.333 178.773 263.429 183.432Z" fill="#7CA661"/>
<path d="M267.813 177.403C268.635 181.514 271.101 185.533 273.75 188.638C276.125 191.378 279.048 193.845 282.336 195.489C282.519 195.489 282.702 195.489 282.793 195.489C282.793 195.306 282.793 195.123 282.793 194.941C279.505 193.114 276.582 191.013 274.116 188.09C272.746 186.446 271.558 184.71 270.553 182.792C269.64 181.057 269.001 179.139 268.361 177.312C268.27 176.855 267.722 177.038 267.813 177.403Z" fill="#39700B"/>
</svg>
