<svg width="7" height="124" viewBox="0 0 7 124" fill="none" xmlns="http://www.w3.org/2000/svg">
<path d="M4.25278 -33.582L0 122.688C0 122.688 3.82788 125.027 6.16486 122.688V-33.582C6.16673 -33.582 5.74182 -36.7725 4.25278 -33.582Z" fill="#912828"/>
<path d="M5.2629 -34.9648L1.17969 123.246C1.17969 123.246 2.97437 123.887 4.17828 123.68L4.08509 116.924L5.2629 -34.9648Z" fill="#B95F5F"/>
<path d="M5.26309 -34.965L2.79565 123.648C2.79565 123.648 6.01972 124.03 6.16694 122.686L5.60599 -34.9352C5.60413 -34.9352 5.40473 -35.0414 5.26309 -34.965C5.26309 -34.965 5.11959 -34.8868 5.26309 -34.965Z" fill="#AF4040"/>
<path d="M4.15407 54.8156C4.15407 55.5648 3.8913 56.1742 3.56703 56.1742C3.24276 56.1742 2.97998 55.5667 2.97998 54.8156C2.97998 54.0664 3.24276 53.457 3.56703 53.457C3.8913 53.457 4.15407 54.0646 4.15407 54.8156Z" fill="#FFA773"/>
</svg>
