<svg width="41" height="73" viewBox="0 0 41 73" fill="none" xmlns="http://www.w3.org/2000/svg">
<path d="M36.5068 64.1547C51.7827 64.1547 64.1662 51.7712 64.1662 36.4953C64.1662 21.2195 51.7827 8.83594 36.5068 8.83594C21.2309 8.83594 8.84741 21.2195 8.84741 36.4953C8.84741 51.7712 21.2309 64.1547 36.5068 64.1547Z" fill="#D34040"/>
<path d="M36.507 63.0531C51.1743 63.0531 63.0645 51.1629 63.0645 36.4955C63.0645 21.8282 51.1743 9.93799 36.507 9.93799C21.8396 9.93799 9.94946 21.8282 9.94946 36.4955C9.94946 51.1629 21.8396 63.0531 36.507 63.0531Z" fill="#F35C53"/>
<path d="M54.7494 54.7493C64.8285 44.6702 64.8286 28.3288 54.7495 18.2497C44.6704 8.17057 28.3289 8.1706 18.2498 18.2497C8.17072 28.3288 8.17073 44.6702 18.2498 54.7493C28.3289 64.8284 44.6703 64.8284 54.7494 54.7493Z" fill="#F35C53"/>
<path d="M36.5068 61.96C50.5706 61.96 61.9715 50.5591 61.9715 36.4954C61.9715 22.4317 50.5706 11.0308 36.5068 11.0308C22.4431 11.0308 11.0422 22.4317 11.0422 36.4954C11.0422 50.5591 22.4431 61.96 36.5068 61.96Z" fill="#C02E24"/>
<path d="M54.052 54.0521C63.746 44.3581 63.746 28.641 54.052 18.9469C44.358 9.25293 28.6409 9.25293 18.9469 18.9469C9.25284 28.641 9.25284 44.3581 18.9469 54.0521C28.6409 63.7461 44.358 63.7461 54.052 54.0521Z" fill="#FF9D97"/>
<path d="M54.7334 52.2645C63.0854 42.2062 61.6041 27.2002 51.4248 18.7476C41.2455 10.2951 26.2228 11.5968 17.8708 21.6551C9.5187 31.7134 11 46.7193 21.1794 55.1719C31.3587 63.6245 46.3813 62.3228 54.7334 52.2645Z" fill="#DF6565"/>
<path d="M36.5067 57.6688C48.2003 57.6688 57.6798 48.1893 57.6798 36.4958C57.6798 24.8022 48.2003 15.3228 36.5067 15.3228C24.8132 15.3228 15.3337 24.8022 15.3337 36.4958C15.3337 48.1893 24.8132 57.6688 36.5067 57.6688Z" fill="#FF9D97"/>
<path d="M43.2965 55.6468C53.8713 51.8805 59.3908 40.2547 55.6245 29.6799C51.8581 19.105 40.2323 13.5856 29.6574 17.3519C19.0826 21.1182 13.5632 32.744 17.3295 43.3189C21.0958 53.8937 32.7216 59.4132 43.2965 55.6468Z" fill="#FF8585"/>
<path d="M36.5067 55.1203C46.7926 55.1203 55.131 46.7819 55.131 36.4959C55.131 26.21 46.7926 17.8716 36.5067 17.8716C26.2207 17.8716 17.8823 26.21 17.8823 36.4959C17.8823 46.7819 26.2207 55.1203 36.5067 55.1203Z" fill="#F26C6C"/>
<path d="M36.5067 54.4742C46.4361 54.4742 54.4855 46.4249 54.4855 36.4954C54.4855 26.566 46.4361 18.5166 36.5067 18.5166C26.5772 18.5166 18.5278 26.566 18.5278 36.4954C18.5278 46.4249 26.5772 54.4742 36.5067 54.4742Z" fill="#FF8585"/>
<path d="M44.5712 38.4684C45.6543 34.0028 42.9122 29.5047 38.4466 28.4216C33.981 27.3385 29.4829 30.0806 28.3998 34.5462C27.3167 39.0118 30.0588 43.5098 34.5244 44.5929C38.99 45.676 43.4881 42.934 44.5712 38.4684Z" fill="#CA4844"/>
<path d="M37.1901 44.0274C41.3738 43.6396 44.4511 39.9336 44.0632 35.7499C43.6754 31.5662 39.9694 28.4891 35.7857 28.8769C31.602 29.2647 28.5248 32.9707 28.9127 37.1544C29.3005 41.3381 33.0064 44.4153 37.1901 44.0274Z" fill="#FF928A"/>
<path d="M37.1454 43.5499C41.0647 43.1866 43.9474 39.7148 43.5841 35.7955C43.2208 31.8762 39.749 28.9935 35.8297 29.3568C31.9104 29.7201 29.0277 33.1919 29.391 37.1112C29.7543 41.0305 33.2261 43.9132 37.1454 43.5499Z" fill="#FF685F"/>
<path d="M45.6194 18.1294C43.4714 21.7732 41.3211 25.4193 39.1731 29.0632C39.2599 29.3859 39.6962 29.4994 40.0034 29.3659C40.3105 29.2323 40.5109 28.9385 40.6957 28.658C41.9533 26.7571 43.2109 24.8562 44.3595 22.8884C45.0963 21.6263 45.8064 20.2863 45.9021 18.8283C45.9177 18.579 45.8665 18.2607 45.6238 18.2006L45.6194 18.1294Z" fill="#CA4844"/>
<path d="M37.426 33.4837C39.189 30.3139 40.9519 27.142 42.7126 23.9723C44.0036 21.6484 45.3103 19.2911 45.9936 16.7402C48.6135 17.2388 51.0576 18.4854 52.9741 20.2995C47.7209 24.876 42.786 29.8331 38.2296 35.1153L37.426 33.4837Z" fill="#DF6565"/>
<path d="M40.1684 36.5205C43.5963 37.0503 47.0243 37.5801 50.4522 38.1098C52.9653 38.4994 55.5117 38.8889 58.0403 38.6307C58.4032 41.2439 58.0314 43.9551 56.9808 46.3769C51.1889 43.0892 45.1545 40.2311 38.9397 37.8383L40.1684 36.5205Z" fill="#DF6565"/>
<path d="M21.0479 51.1645C23.9215 47.7566 27.5609 45.0966 31.1647 42.47C30.9421 42.0961 30.6461 41.7644 30.2988 41.4995C28.4046 42.9642 26.6038 44.5468 24.9076 46.2363C23.4051 47.7321 21.9672 49.3437 21.0523 51.2558L21.0479 51.1645Z" fill="#CA4844"/>
<path d="M33.829 39.0016C31.2491 41.321 28.6693 43.6382 26.0916 45.9576C24.1996 47.6582 22.2876 49.3811 20.8852 51.5024C18.6326 50.129 16.7673 48.1256 15.5586 45.7795C21.7689 43.3755 27.8012 40.5107 33.5864 37.2119L33.829 39.0016Z" fill="#DF6565"/>
<path d="M37.0566 57.8911C36.2508 53.3457 35.8858 48.7202 35.9682 44.1037C36.3711 43.9812 36.7918 43.9256 37.2125 43.939C38.0962 48.4954 38.1407 53.2144 37.3438 57.7887L37.0566 57.8911Z" fill="#CA4844"/>
<path d="M37.6507 40.1883C38.8394 43.447 40.0258 46.7058 41.2144 49.9646C42.0848 52.353 42.9707 54.7726 44.4153 56.8649C42.3007 58.4431 39.7453 59.4248 37.1187 59.6696C37.2077 53.0119 36.8004 46.3452 35.9011 39.7476L37.6507 40.1883Z" fill="#DF6565"/>
<path d="M19.2381 23.8454C20.5091 24.1125 21.3505 25.2722 22.2453 26.2138C24.4646 28.5555 27.6142 29.9355 29.5463 32.5198C29.74 32.2839 29.9337 32.0479 30.1273 31.812C30.1874 31.7385 30.2498 31.6606 30.2564 31.5671C30.2653 31.4492 30.1852 31.3445 30.1095 31.2533C27.5497 28.1904 24.7673 25.1253 21.1123 23.5204C20.4423 23.2266 19.6053 23.004 19.0244 23.447C19.0199 23.536 19.0133 23.6273 19.0066 23.7163L19.2381 23.8454Z" fill="#CA4844"/>
<path d="M33.0565 34.116C30.3298 31.9724 27.6052 29.8266 24.8785 27.6831C22.8796 26.1116 20.854 24.5222 18.5234 23.505C19.4917 21.0498 21.1456 18.8706 23.2491 17.2769C26.6815 22.9841 30.5368 28.4354 34.7772 33.5707L33.0565 34.116Z" fill="#DF6565"/>
<path d="M35.327 27.774C34.0003 26.6988 33.3192 24.8825 33.613 23.1997C33.751 22.4072 34.1517 21.5881 34.8929 21.2698C35.8478 20.8602 37.0142 21.4991 37.4549 22.4406C37.8935 23.3822 37.7488 24.5018 37.386 25.4746C37.0232 26.4518 36.4533 27.351 35.7232 28.0967C35.6297 28.0477 35.4071 27.8385 35.327 27.774Z" fill="#CA4844"/>
<path d="M35.5719 26.8992C34.4812 26.0156 33.9225 24.522 34.1629 23.1397C34.2764 22.4875 34.6059 21.813 35.2135 21.5526C35.9971 21.2142 36.9587 21.7418 37.3193 22.5164C37.6799 23.291 37.5597 24.2103 37.2636 25.0117C36.9653 25.8152 36.4956 26.5542 35.8969 27.1686C35.8212 27.1241 35.6387 26.9527 35.5719 26.8992Z" fill="#FAD383"/>
<path d="M36.7091 23.574C36.4376 23.9012 35.9523 23.9458 35.6229 23.6742C35.2934 23.4026 35.2511 22.9174 35.5227 22.5879C35.7943 22.2607 36.2795 22.2162 36.6089 22.4878C36.9361 22.7594 36.9807 23.2468 36.7091 23.574Z" fill="#E4B34C"/>
<path d="M36.3418 25.6237C36.1548 25.8485 35.8254 25.8863 35.6073 25.7038C35.3891 25.5235 35.3646 25.1918 35.5516 24.967C35.7386 24.7422 36.068 24.7043 36.2862 24.8869C36.5043 25.0672 36.5288 25.3988 36.3418 25.6237Z" fill="#E4B34C"/>
<path d="M36.6068 22.9864C36.4711 23.1511 36.2039 23.1511 36.008 22.9908C35.8144 22.8283 35.7654 22.5657 35.9012 22.401C36.037 22.2362 36.3063 22.2362 36.4999 22.3965C36.6958 22.559 36.7426 22.8239 36.6068 22.9864Z" fill="#FFEAB8"/>
<path d="M27.7167 36.2504C26.5614 37.5081 24.705 38.0735 23.0445 37.675C22.2609 37.4881 21.4685 37.0362 21.1969 36.2772C20.8475 35.3 21.5598 34.1737 22.5259 33.793C23.4919 33.4124 24.6004 33.6283 25.5486 34.0512C26.5013 34.4742 27.365 35.0996 28.0617 35.8743C28.0083 35.9633 27.7857 36.1725 27.7167 36.2504Z" fill="#CA4844"/>
<path d="M26.86 35.9504C25.9095 36.9833 24.3847 37.4485 23.018 37.1235C22.3747 36.9699 21.7225 36.5982 21.4999 35.9749C21.2128 35.1714 21.7982 34.2454 22.5928 33.9338C23.3875 33.6221 24.2979 33.798 25.0792 34.1452C25.8628 34.4925 26.5706 35.0066 27.1449 35.6433C27.1004 35.7145 26.9179 35.8881 26.86 35.9504Z" fill="#FAD383"/>
<path d="M23.61 34.6065C23.9194 34.8981 23.935 35.3856 23.6434 35.695C23.3518 36.0044 22.8643 36.02 22.5549 35.7284C22.2455 35.4368 22.23 34.9493 22.5216 34.6399C22.8132 34.3305 23.3006 34.3149 23.61 34.6065Z" fill="#E4B34C"/>
<path d="M25.6356 35.1023C25.8493 35.3026 25.8648 35.6343 25.6712 35.8413C25.4775 36.0483 25.1458 36.0528 24.9321 35.8502C24.7185 35.6499 24.7029 35.3182 24.8965 35.1112C25.0902 34.9042 25.4219 34.8997 25.6356 35.1023Z" fill="#FFE199"/>
<path d="M23.0199 34.6728C23.1757 34.8197 23.1601 35.0868 22.9865 35.2716C22.8129 35.4563 22.5458 35.4875 22.3922 35.3406C22.2364 35.1936 22.2519 34.9265 22.4256 34.7418C22.597 34.557 22.8641 34.5259 23.0199 34.6728Z" fill="#FFEAB8"/>
<path d="M33.3103 44.7244C33.8757 46.336 33.5017 48.2392 32.371 49.5191C31.8367 50.1223 31.0665 50.6098 30.2696 50.4918C29.2413 50.3405 28.5847 49.183 28.7026 48.1502C28.8228 47.1173 29.5329 46.2425 30.352 45.6037C31.1734 44.9626 32.1305 44.4952 33.1433 44.2437C33.1945 44.3327 33.2769 44.6265 33.3103 44.7244Z" fill="#CA4844"/>
<path d="M32.6424 45.3389C33.1077 46.6633 32.8005 48.2281 31.8701 49.281C31.4315 49.7774 30.7972 50.178 30.1427 50.0801C29.2969 49.9554 28.756 49.005 28.8561 48.1547C28.9563 47.3044 29.5395 46.5854 30.2117 46.0601C30.8862 45.5325 31.6741 45.1497 32.5066 44.9404C32.5489 45.0161 32.6135 45.2587 32.6424 45.3389Z" fill="#FFE199"/>
<path d="M29.9291 47.5738C30.3319 47.438 30.7704 47.6539 30.9062 48.0568C31.042 48.4597 30.8261 48.8982 30.4232 49.034C30.0203 49.1698 29.5818 48.9539 29.446 48.551C29.308 48.1481 29.5262 47.7096 29.9291 47.5738Z" fill="#E4B34C"/>
<path d="M31.3178 46.0199C31.596 45.9264 31.8943 46.0689 31.9856 46.336C32.0768 46.6053 31.9255 46.8992 31.6472 46.9927C31.369 47.0861 31.0707 46.9437 30.9795 46.6766C30.8882 46.4072 31.0396 46.1134 31.3178 46.0199Z" fill="#E4B34C"/>
<path d="M29.7085 48.126C29.9111 48.057 30.1404 48.1972 30.2205 48.4376C30.3006 48.678 30.2027 48.9273 30.0024 48.9941C29.7998 49.0631 29.5705 48.9229 29.4904 48.6825C29.4102 48.4443 29.5082 48.195 29.7085 48.126Z" fill="#FFEAB8"/>
<path d="M43.4804 14.2599C43.8778 13.7814 43.7346 13.0069 43.1605 12.5302C42.5865 12.0534 41.7989 12.0549 41.4015 12.5334C41.0041 13.012 41.1473 13.7864 41.7213 14.2631C42.2954 14.7399 43.0829 14.7384 43.4804 14.2599Z" fill="#FFEAB8"/>
<path d="M37.8691 13.1917C37.5886 13.5278 37.1345 13.6101 36.8518 13.3764C36.5692 13.1427 36.5669 12.6797 36.8474 12.3436C37.1279 12.0075 37.582 11.9251 37.8647 12.1588C38.1473 12.3926 38.1496 12.8555 37.8691 13.1917Z" fill="#FFEAB8"/>
<path d="M35.0421 61.4281C34.8284 61.6841 34.3476 61.6374 33.967 61.3235C33.5863 61.0074 33.4528 60.5444 33.6664 60.2862C33.8801 60.0303 34.361 60.077 34.7416 60.3908C35.1222 60.7069 35.2558 61.1699 35.0421 61.4281Z" fill="#FFEAB8"/>
<path d="M29.4438 56.3839C29.337 56.513 29.1366 56.5219 28.9964 56.4061C28.8562 56.2904 28.8295 56.0923 28.9363 55.9632C29.0431 55.8341 29.2435 55.8252 29.3837 55.9409C29.5239 56.0567 29.5507 56.257 29.4438 56.3839Z" fill="#FFEAB8"/>
</svg>
