<svg width="89" height="87" viewBox="0 0 89 87" fill="none" xmlns="http://www.w3.org/2000/svg">
<path d="M8.92384 25.0085C1.64453 33.7526 -1.24968 44.6045 0.492808 55.8273C2.3788 67.9669 11.628 74.84 23.1843 76.9887C33.5181 78.9101 45.0949 75.2052 51.5039 66.6531C57.6949 58.3898 58.8448 45.6165 51.5338 37.5227C44.4632 29.6955 33.1677 27.8804 24.4758 34.1403C14.77 41.1307 13.6202 54.0084 16.0485 64.7801C17.2244 69.9964 19.4533 74.989 22.9923 79.0126C26.9842 83.5505 33.8703 85.457 39.5805 86.3534C51.1238 88.163 62.6708 83.9698 70.7291 75.6618C87.5185 58.3506 80.9772 27.6828 62.6279 14.4883C53.7999 8.14081 42.0889 6.39276 32.5844 12.0917C24.0416 17.213 19.2576 27.9754 21.125 37.7222C23.1824 48.466 30.7133 56.9678 41.0471 60.4453C52.2419 64.2136 62.0744 58.1661 68.3138 49.1275C74.3147 40.4356 68.0585 28.8289 59.0069 25.4316C49.6608 21.9224 38.4269 26.0111 34.5599 35.5883C30.6723 45.2158 32.6869 58.6767 41.569 64.9218C50.0801 70.9059 60.5127 70.9077 69.801 66.8096C90.6811 57.5958 98.0051 24.8986 82.5184 7.94889C67.0261 -9.00637 34.7276 3.21525 32.864 25.3029C31.8073 37.8246 34.9643 50.5588 40.5701 61.6921C43.2239 66.9643 46.72 72.0259 50.9952 76.1072C55.5592 80.4644 61.6365 81.8472 67.6634 82.8181C73.5804 83.7705 79.4564 84.35 85.1945 82.2535C90.3251 80.3787 94.0169 75.7848 97.3118 71.6737C99.1904 69.3292 95.8824 65.9765 93.9834 68.3452C89.2088 74.3032 84.682 78.8691 76.5678 79.0424C69.2661 79.1971 60.0114 77.572 54.3236 72.7788C43.9041 63.9992 38.7921 47.8752 37.6181 34.7925C36.9677 27.5524 37.1037 20.2861 42.1131 14.589C46.8318 9.22358 53.6322 5.65847 60.7065 4.80679C67.013 4.04643 73.4276 6.25113 78.2078 10.3306C84.0391 15.3046 85.5729 23.717 85.8356 30.9758C86.337 44.8953 78.5992 58.4773 65.4066 63.5781C60.0095 65.6653 54.2565 65.4566 48.852 63.5874C41.6975 61.1144 38.1883 54.7463 37.5957 47.536C36.9621 39.8392 39.6736 32.668 47.1561 29.6023C54.2751 26.6858 62.5645 31.0056 65.3413 37.8563C68.1461 44.776 61.2898 51.6304 55.9133 54.9197C49.234 59.0029 40.2998 56.2559 34.5953 51.8074C23.8123 43.3969 22.4631 27.7164 32.3123 18.1988C43.0356 7.83707 58.8764 15.3941 67.1192 24.8985C76.5287 35.7486 78.0587 53.3822 71.81 66.0772C65.2985 79.3033 49.6012 84.2848 35.9632 80.8185C28.3148 78.8729 24.008 74.0721 21.5294 66.8152C18.9371 59.2246 18.5345 50.7265 22.4053 43.5199C30.445 28.5475 50.7734 35.4019 51.8934 51.0471C53.0079 66.6121 36.1477 74.6331 22.9178 72.1731C16.123 70.9096 10.1091 67.365 6.96704 61.1125C3.75788 54.7259 4.14365 46.6769 5.96627 39.992C7.13849 35.6964 9.42516 31.7455 12.2579 28.3425C14.1793 26.0223 10.8676 22.6734 8.92384 25.0085Z" fill="#F7D075"/>
</svg>
