<svg width="93" height="85" viewBox="0 0 93 85" fill="none" xmlns="http://www.w3.org/2000/svg">
<path d="M23.9667 0.129372C13.7317 3.60503 6.00326 10.9645 1.8511 20.9218C-2.64023 31.6935 1.44669 41.8503 9.74355 49.3235C17.1645 56.0064 28.3817 58.7441 37.8191 54.9926C46.934 51.3678 54.2003 41.5857 52.2901 31.401C50.4414 21.5517 42.1893 14.4792 32.0418 15.2415C20.7091 16.0931 13.3925 25.9592 10.0175 35.8904C8.38309 40.7005 7.71404 45.8515 8.58622 50.8665C9.57021 56.5245 14.2051 61.4836 18.387 65.0412C26.8442 72.233 38.2812 74.5607 48.93 71.8249C71.1202 66.124 81.029 38.028 72.7024 18.2363C68.6956 8.71321 60.0726 1.48982 49.545 1.39478C40.0833 1.30905 30.8696 7.65655 27.5486 16.4808C23.8884 26.2071 25.7744 36.8316 32.422 44.7743C39.6249 53.3805 50.5923 53.3545 60.1285 49.1259C69.3031 45.0576 69.9889 32.5508 64.3384 25.3069C58.5053 17.8282 47.3757 15.5714 39.4907 21.4138C31.5647 27.288 26.5236 39.1946 30.6236 48.66C34.554 57.7284 43.0055 62.9056 52.5641 64.1896C74.0516 67.0782 96.2045 44.2134 92.0598 22.7985C87.9151 1.37612 55.68 -4.73656 43.2161 12.2355C36.1511 21.8574 32.394 33.7436 31.4156 45.5459C30.9516 51.1349 31.274 56.9699 32.7146 62.3968C34.2521 68.1908 38.4918 72.3262 42.8937 76.1C47.2173 79.8068 51.69 83.1911 57.3797 84.3372C62.4655 85.3622 67.7358 83.4706 72.4452 81.7729C75.1288 80.8056 74.1113 76.4467 71.3978 77.4251C64.5751 79.885 58.6413 81.3405 51.9807 77.4567C45.9855 73.9606 39.2932 68.0548 37.0605 61.3494C32.9718 49.0681 36.8257 33.4659 42.3607 22.2841C45.4245 16.095 49.1368 10.2731 56.0229 8.14109C62.5065 6.13397 69.7877 6.61664 75.9413 9.43444C81.4279 11.9466 85.5334 16.9132 87.384 22.5898C89.6409 29.5131 86.715 37.0906 83.325 43.1027C76.8284 54.631 63.8241 61.7986 50.6017 59.3889C45.1934 58.403 40.635 55.3821 37.1817 51.1871C32.6121 45.6353 32.9252 38.7343 36.0188 32.5974C39.3211 26.0468 45.076 21.5797 52.6609 22.8059C59.875 23.9726 64.4502 31.5855 63.3041 38.5126C62.1449 45.5105 53.1902 47.6648 47.2024 47.6629C39.7647 47.6611 33.8868 41.0023 31.4715 34.5691C26.9038 22.4071 33.5886 9.03001 46.2892 6.20103C60.1173 3.12046 69.2062 17.1032 71.1723 28.8925C73.4161 42.3516 65.9113 57.3985 54.5525 64.5865C42.7166 72.0764 27.5262 68.3287 18.1932 58.7552C12.9602 53.3861 11.8513 47.3592 13.441 40.2495C15.1052 32.8118 18.9927 25.7281 25.7036 21.807C39.6435 13.6611 52.7169 29.297 45.8662 42.5306C39.0509 55.6952 21.4098 53.8334 11.9091 45.2794C7.03011 40.8868 3.91412 35.0295 4.46761 28.4061C5.03416 21.6393 9.33912 15.3086 14.1305 10.7949C17.2111 7.89509 21.0222 5.8283 25.0066 4.47531C27.7219 3.55654 26.6988 -0.800577 23.9667 0.129372Z" fill="#FFA25F"/>
</svg>
