<svg width="95" height="87" viewBox="0 0 95 87" fill="none" xmlns="http://www.w3.org/2000/svg">
<path d="M94.6801 20.6157C93.0009 9.36314 86.8286 -0.022049 77.2943 -6.19065C66.981 -12.8643 55.6949 -10.5366 46.3973 -3.34489C38.0836 3.08834 33.1432 14.1918 35.2584 24.6691C37.3028 34.7904 46.0693 44.1514 56.9771 44.0825C67.5252 44.0173 76.3998 36.7957 77.5124 26.1432C78.7572 14.2459 69.9125 4.81589 60.2571 -0.542034C55.5812 -3.13806 50.3724 -4.79665 45.0145 -4.83392C38.9707 -4.87678 32.9643 -1.00605 28.4953 2.65784C19.4605 10.0676 14.902 21.4767 15.7388 33.0181C17.4794 57.0701 44.72 72.6052 66.7816 67.6946C77.3968 65.3315 86.495 57.7559 88.5693 46.8705C90.4329 37.0864 85.5874 26.352 77.0707 21.2568C67.6836 15.6399 56.3267 15.6007 46.852 20.9959C36.5872 26.8421 34.5558 38.2046 37.1462 48.8757C39.6379 59.1406 52.4634 62.1969 61.0249 57.7037C69.864 53.0651 74.292 41.9617 69.7187 32.6995C65.123 23.3888 53.7362 15.9324 43.1639 18.4036C33.0332 20.7723 26.0856 28.5548 22.9622 38.2139C15.9382 59.927 35.4634 87.1602 58.4195 86.8881C81.385 86.6141 93.765 54.3753 78.5243 38.281C69.8845 29.1567 58.2798 23.0366 46.2389 19.8088C40.538 18.2806 34.4347 17.5184 28.5419 17.9936C22.2522 18.4987 17.1738 22.114 12.4383 25.9643C7.78856 29.7456 3.44446 33.745 1.18947 39.4216C-0.826971 44.4981 0.143969 50.3107 1.01801 55.5065C1.51746 58.4678 6.22124 58.2311 5.71807 55.2381C4.4508 47.7091 4.05758 41.2908 9.32791 35.1222C14.0727 29.5704 21.4471 23.7466 28.8102 22.6918C42.2992 20.7611 57.7337 27.6807 68.2762 35.5117C74.1112 39.8465 79.4449 44.7851 80.3618 52.316C81.2247 59.4089 79.3573 66.8578 75.2853 72.704C71.655 77.9147 65.7398 81.2357 59.5135 82.0874C51.9192 83.1273 44.6212 78.6732 39.0304 74.0347C28.3108 65.1433 23.3256 50.3275 28.3015 37.0864C30.3366 31.6689 34.3228 27.5149 39.3136 24.7269C45.9221 21.035 53.0094 22.6545 58.7848 27.0117C64.9497 31.6614 68.4961 38.4599 65.8032 46.0859C63.2407 53.3391 54.4985 56.6489 47.5378 54.1628C40.5064 51.6488 39.9547 41.971 41.0822 35.7688C42.4799 28.0665 50.4786 23.2285 57.5958 21.9333C71.0493 19.4845 83.6493 28.9181 84.1972 42.6027C84.7917 57.5024 68.6061 64.2935 56.0266 64.1164C41.6655 63.9152 27.4889 53.3186 22.1757 40.2043C16.6389 26.5402 23.3722 11.5101 35.0385 3.64184C41.5817 -0.771224 48.0317 -0.789864 55.0967 2.1938C62.4878 5.31351 69.0962 10.6696 71.8972 18.3551C77.7192 34.3227 59.0699 44.9286 46.6507 35.3495C34.2949 25.8208 39.5317 7.89834 50.1748 -0.337018C55.6409 -4.56558 62.2903 -6.69386 69.0478 -4.87869C75.9506 -3.02252 81.6999 2.62429 85.4738 8.43508C87.9002 12.1698 89.324 16.5046 89.9781 20.8841C90.4254 23.8622 95.1292 23.6217 94.6801 20.6157Z" fill="#FCDB9A"/>
</svg>
